<svg width="1364" height="502" xmlns="http://www.w3.org/2000/svg" xmlns:xlink="http://www.w3.org/1999/xlink" overflow="hidden"><defs><clipPath id="clip0"><rect x="303" y="256" width="1364" height="502"/></clipPath></defs><g clip-path="url(#clip0)" transform="translate(-303 -256)"><rect x="605.5" y="386.5" width="879" height="154" stroke="#92D050" stroke-width="1.33333" stroke-linejoin="round" stroke-miterlimit="10" fill="#262626"/><rect x="1484.5" y="257.5" width="176" height="496" stroke="#92D050" stroke-width="1.33333" stroke-linejoin="round" stroke-miterlimit="10" fill="#262626"/><rect x="304.5" y="540.5" width="1180" height="182" stroke="#92D050" stroke-width="1.33333" stroke-linejoin="round" stroke-miterlimit="10" fill="#262626"/><text fill="#FFFFFF" font-family="Trebuchet MS,Trebuchet MS_MSFontService,sans-serif" font-weight="400" font-size="35" transform="translate(1505.31 300)">Joint net<tspan font-size="35" x="-663.494" y="120">Transcript prediction net</tspan><tspan font-size="35" x="-619.897" y="410">Audio encoding net</tspan></text><path d="M639.338 588.3 589.5 588.3" stroke="#C5C5C5" stroke-width="2.66667" stroke-linejoin="round" stroke-miterlimit="10" fill="none" fill-rule="evenodd"/><path d="M938.338 588.3 888.5 588.3" stroke="#C5C5C5" stroke-width="2.66667" stroke-linejoin="round" stroke-miterlimit="10" fill="none" fill-rule="evenodd"/><path d="M1237.34 588.3 1187.5 588.3" stroke="#A5A5A5" stroke-width="2.66667" stroke-linejoin="round" stroke-miterlimit="10" fill="none" fill-rule="evenodd"/><path d="M1536.34 540.5 1511.42 540.5 1511.42 587.983 1486.5 587.983" stroke="#7C7C7C" stroke-width="2.66667" stroke-linejoin="round" stroke-miterlimit="10" fill="none" fill-rule="evenodd"/><path d="M938.338 493.3 888.5 493.3" stroke="#C5C5C5" stroke-width="2.66667" stroke-linejoin="round" stroke-miterlimit="10" fill="none" fill-rule="evenodd"/><path d="M1237.34 493.3 1187.5 493.3" stroke="#A5A5A5" stroke-width="2.66667" stroke-linejoin="round" stroke-miterlimit="10" fill="none" fill-rule="evenodd"/><path d="M1536.34 540.983 1511.42 540.983 1511.42 493.5 1486.5 493.5" stroke="#7C7C7C" stroke-width="2.66667" stroke-linejoin="round" stroke-miterlimit="10" fill="none" fill-rule="evenodd"/><rect x="1536.5" y="340.5" width="76" height="400" stroke="#FFFFFF" stroke-width="2.66667" stroke-linejoin="round" stroke-miterlimit="10" fill="#494949"/><text fill="#FFFFFF" font-family="Trebuchet MS,Trebuchet MS_MSFontService,sans-serif" font-weight="400" font-size="41" transform="matrix(6.12323e-17 1 -1 6.12323e-17 1561.41 347)">ReLU + FC 512<tspan font-size="41" x="263" y="1.61041e-14">-</tspan><tspan font-size="41" x="278" y="1.70226e-14">&gt;</tspan><tspan font-size="41" x="300" y="1.83697e-14">1024</tspan></text><rect x="1237.5" y="455.5" width="249" height="76" stroke="#FFFFFF" stroke-width="2.66667" stroke-linejoin="round" stroke-miterlimit="10" fill="#545454"/><text fill="#FFFFFF" font-family="Trebuchet MS,Trebuchet MS_MSFontService,sans-serif" font-weight="400" font-size="35" transform="translate(1266.71 503)">FC 512-<tspan font-size="35" x="116.64" y="0">&gt;512</tspan></text><rect x="938.5" y="455.5" width="249" height="76" stroke="#FFFFFF" stroke-width="2.66667" stroke-linejoin="round" stroke-miterlimit="10" fill="#616161"/><text fill="#FFFFFF" font-family="Trebuchet MS,Trebuchet MS_MSFontService,sans-serif" font-weight="400" font-size="35" transform="translate(967.399 503)">2x LSTM 512</text><rect x="639.5" y="455.5" width="249" height="76" stroke="#FFFFFF" stroke-width="2.66667" stroke-linejoin="round" stroke-miterlimit="10" fill="#A5A5A5"/><text fill="#FFFFFF" font-family="Trebuchet MS,Trebuchet MS_MSFontService,sans-serif" font-weight="400" font-size="35" transform="translate(646.2 485)">Embeding <tspan font-size="35" x="161.547" y="0">1023</tspan><tspan font-size="35" x="74.4133" y="36">-</tspan><tspan font-size="35" x="87.14" y="36">&gt; 512</tspan></text><rect x="1237.5" y="549.5" width="249" height="76" stroke="#FFFFFF" stroke-width="2.66667" stroke-linejoin="round" stroke-miterlimit="10" fill="#545454"/><text fill="#FFFFFF" font-family="Trebuchet MS,Trebuchet MS_MSFontService,sans-serif" font-weight="400" font-size="35" transform="translate(1257.62 598)">FC 1024<tspan font-size="35" x="122.093" y="0">-</tspan><tspan font-size="35" x="134.82" y="0">&gt;512</tspan></text><rect x="938.5" y="549.5" width="249" height="76" stroke="#FFFFFF" stroke-width="2.66667" stroke-linejoin="round" stroke-miterlimit="10" fill="#616161"/><text fill="#FFFFFF" font-family="Trebuchet MS,Trebuchet MS_MSFontService,sans-serif" font-weight="400" font-size="35" transform="translate(958.309 598)">3x LSTM 1024</text><rect x="639.5" y="549.5" width="249" height="76" stroke="#FFFFFF" stroke-width="2.66667" stroke-linejoin="round" stroke-miterlimit="10" fill="#A5A5A5"/><text fill="#FFFFFF" font-family="Trebuchet MS,Trebuchet MS_MSFontService,sans-serif" font-weight="400" font-size="35" transform="translate(693.65 580)">2x stack,<tspan font-size="35" x="-28.9667" y="36">2x subsample</tspan></text><rect x="340.5" y="549.5" width="249" height="76" stroke="#FFFFFF" stroke-width="2.66667" stroke-linejoin="round" stroke-miterlimit="10" fill="#616161"/><text fill="#FFFFFF" font-family="Trebuchet MS,Trebuchet MS_MSFontService,sans-serif" font-weight="400" font-size="35" transform="translate(360.25 598)">2x LSTM 1024</text></g></svg>