<svg width="1364" height="854" xmlns="http://www.w3.org/2000/svg" xmlns:xlink="http://www.w3.org/1999/xlink" overflow="hidden"><defs><clipPath id="clip0"><rect x="303" y="113" width="1364" height="854"/></clipPath></defs><g clip-path="url(#clip0)" transform="translate(-303 -113)"><rect x="605.5" y="386.5" width="879" height="154" stroke="#92D050" stroke-width="1.33333" stroke-linejoin="round" stroke-miterlimit="10" fill="#262626"/><rect x="1484.5" y="257.5" width="176" height="496" stroke="#92D050" stroke-width="1.33333" stroke-linejoin="round" stroke-miterlimit="10" fill="#262626"/><rect x="304.5" y="540.5" width="1180" height="182" stroke="#92D050" stroke-width="1.33333" stroke-linejoin="round" stroke-miterlimit="10" fill="#262626"/><text fill="#FFFFFF" font-family="Trebuchet MS,Trebuchet MS_MSFontService,sans-serif" font-weight="400" font-size="35" transform="translate(1505.31 300)">Joint net<tspan font-size="35" x="-663.494" y="120">Transcript prediction net</tspan><tspan font-size="35" x="-619.897" y="410">Audio encoding net</tspan></text><path d="M621.616 588.3 571.5 588.3" stroke="#C5C5C5" stroke-width="2.66667" stroke-linejoin="round" stroke-miterlimit="10" fill="none" fill-rule="evenodd"/><path d="M922.616 588.3 872.5 588.3" stroke="#C5C5C5" stroke-width="2.66667" stroke-linejoin="round" stroke-miterlimit="10" fill="none" fill-rule="evenodd"/><path d="M1222.62 588.3 1172.5 588.3" stroke="#A5A5A5" stroke-width="2.66667" stroke-linejoin="round" stroke-miterlimit="10" fill="none" fill-rule="evenodd"/><path d="M1523.62 540.5 1498.56 540.5 1498.56 588.247 1473.5 588.247" stroke="#7C7C7C" stroke-width="2.66667" stroke-linejoin="round" stroke-miterlimit="10" fill="none" fill-rule="evenodd"/><path d="M922.616 492.3 872.5 492.3" stroke="#C5C5C5" stroke-width="2.66667" stroke-linejoin="round" stroke-miterlimit="10" fill="none" fill-rule="evenodd"/><path d="M1222.62 492.3 1172.5 492.3" stroke="#A5A5A5" stroke-width="2.66667" stroke-linejoin="round" stroke-miterlimit="10" fill="none" fill-rule="evenodd"/><path d="M1523.62 540.247 1498.56 540.247 1498.56 492.5 1473.5 492.5" stroke="#7C7C7C" stroke-width="2.66667" stroke-linejoin="round" stroke-miterlimit="10" fill="none" fill-rule="evenodd"/><rect x="1523.5" y="339.5" width="77" height="402" stroke="#FFFFFF" stroke-width="2.66667" stroke-linejoin="round" stroke-miterlimit="10" fill="#494949"/><text fill="#FFFFFF" font-family="Trebuchet MS,Trebuchet MS_MSFontService,sans-serif" font-weight="400" font-size="41" transform="matrix(6.12323e-17 1 -1 6.12323e-17 1548.98 347)">ReLU + FC <tspan font-size="41" x="198" y="1.2124e-14">512</tspan><tspan font-size="41" x="263" y="1.61041e-14">-</tspan><tspan font-size="41" x="278" y="1.70226e-14">&gt;</tspan><tspan font-size="41" x="300" y="1.83697e-14">1024</tspan></text><rect x="1222.5" y="454.5" width="251" height="76" stroke="#FFFFFF" stroke-width="2.66667" stroke-linejoin="round" stroke-miterlimit="10" fill="#545454"/><text fill="#FFFFFF" font-family="Trebuchet MS,Trebuchet MS_MSFontService,sans-serif" font-weight="400" font-size="35" transform="translate(1253.11 503)">FC 512-<tspan font-size="35" x="116.64" y="0">&gt;512</tspan></text><rect x="922.5" y="454.5" width="250" height="76" stroke="#FFFFFF" stroke-width="2.66667" stroke-linejoin="round" stroke-miterlimit="10" fill="#616161"/><text fill="#FFFFFF" font-family="Trebuchet MS,Trebuchet MS_MSFontService,sans-serif" font-weight="400" font-size="35" transform="translate(952.128 503)">2x LSTM 512</text><rect x="621.5" y="454.5" width="251" height="76" stroke="#FFFFFF" stroke-width="2.66667" stroke-linejoin="round" stroke-miterlimit="10" fill="#A5A5A5"/><text fill="#FFFFFF" font-family="Trebuchet MS,Trebuchet MS_MSFontService,sans-serif" font-weight="400" font-size="35" transform="translate(629.264 485)">Embeding <tspan font-size="35" x="161.547" y="0">1023</tspan><tspan font-size="35" x="74.4133" y="36">-</tspan><tspan font-size="35" x="87.14" y="36">&gt; 512</tspan></text><rect x="1222.5" y="550.5" width="251" height="76" stroke="#FFFFFF" stroke-width="2.66667" stroke-linejoin="round" stroke-miterlimit="10" fill="#545454"/><text fill="#FFFFFF" font-family="Trebuchet MS,Trebuchet MS_MSFontService,sans-serif" font-weight="400" font-size="35" transform="translate(1244.02 599)">FC 1024<tspan font-size="35" x="122.093" y="0">-</tspan><tspan font-size="35" x="134.82" y="0">&gt;512</tspan></text><rect x="922.5" y="550.5" width="250" height="76" stroke="#FFFFFF" stroke-width="2.66667" stroke-linejoin="round" stroke-miterlimit="10" fill="#616161"/><text fill="#FFFFFF" font-family="Trebuchet MS,Trebuchet MS_MSFontService,sans-serif" font-weight="400" font-size="35" transform="translate(943.038 599)">3x LSTM 1024</text><rect x="621.5" y="550.5" width="251" height="76" stroke="#FFFFFF" stroke-width="2.66667" stroke-linejoin="round" stroke-miterlimit="10" fill="#A5A5A5"/><text fill="#FFFFFF" font-family="Trebuchet MS,Trebuchet MS_MSFontService,sans-serif" font-weight="400" font-size="35" transform="translate(676.714 581)">3x stack,<tspan font-size="35" x="-28.9667" y="36">3x subsample</tspan></text><rect x="320.5" y="550.5" width="251" height="76" stroke="#FFFFFF" stroke-width="2.66667" stroke-linejoin="round" stroke-miterlimit="10" fill="#616161"/><text fill="#FFFFFF" font-family="Trebuchet MS,Trebuchet MS_MSFontService,sans-serif" font-weight="400" font-size="35" transform="translate(341.65 599)">2x LSTM 1024</text></g></svg>